# AST/ASF file generated using VICON BodyLanguage
# -----------------------------------------------
:version 1.10
:name VICON
:units
  mass 1.0
  length 0.45
  angle deg
:documentation
   .ast/.asf automatically generated from VICON data using
   VICON BodyBuilder and BodyLanguage model FoxedUp or BRILLIANT.MOD
:root
   order TX TY TZ RX RY RZ
   axis XYZ
   position 0 0 0  
   orientation 0 0 0 
:bonedata
  begin
     id 1 
     name lhipjoint
     direction 0.710188 -0.616876 0.339259 
     length 2.5669 
     axis 0 0 0  XYZ
  end
  begin
     id 2 
     name lfemur
     direction 0.34202 -0.939693 0  
     length 7.12796  
     axis 0 0 20  XYZ
    dof rx ry rz
    limits (-160.0 20.0)
           (-70.0 70.0)
           (-60.0 70.0)
  end
  begin
     id 3 
     name ltibia
     direction 0.34202 -0.939693 0   
     length 7.58108   
     axis 0 0 20   XYZ
    dof rx
    limits (-10.0 170.0)
  end
  begin
     id 4 
     name lfoot
     direction 0.0669471 -0.183936 0.980656   
     length 2.17365   
     axis -90 7.62852e-016 20   XYZ
    dof rx rz
    limits (-45.0 90.0)
           (-70.0 20.0)
  end
  begin
     id 5 
     name ltoes
     direction 1.53508e-011 -4.21705e-011 1   
     length 1.09427   
     axis -90 7.62852e-016 20   XYZ
    dof rx
    limits (-90.0 20.0)
  end
  begin
     id 6 
     name rhipjoint
     direction -0.700191 -0.625589 0.34405   
     length 2.53115  
     axis 0 0 0  XYZ 
  end
  begin
     id 7 
     name rfemur
     direction -0.34202 -0.939693 0   
     length 7.33006   
     axis 0 0 -20   XYZ
    dof rx ry rz
    limits (-160.0 20.0)
           (-70.0 70.0)
           (-70.0 60.0)
  end
  begin
     id 8 
     name rtibia
     direction -0.34202 -0.939693 0   
     length 7.64926   
     axis 0 0 -20   XYZ
    dof rx
    limits (-10.0 170.0)
 end
 begin
     id 9 
     name rfoot
     direction -0.0688927 -0.189281 0.979503   
     length 2.20493  
     axis -90 -7.62852e-016 -20   XYZ
    dof rx rz
    limits (-45.0 90.0)
           (-20.0 70.0)
  end
  begin
     id 10 
     name rtoes
     direction -1.53567e-011 -4.21933e-011 1   
     length 1.10919   
     axis -90 -7.62852e-016 -20   XYZ
    dof rx
    limits (-90.0 20.0)
  end
  begin
     id 11 
     name lowerback
     direction -0.0167868 0.989873 -0.140959   
     length 2.14596   
     axis 0 0 0   XYZ
    dof rx ry rz
    limits (-20.0 45.0)
           (-30.0 30.0)
           (-30.0 30.0)
  end
  begin
     id 12 
     name upperback
     direction 0.0129109 0.998033 0.0613525   
     length 2.10457   
     axis 0 0 0   XYZ
    dof rx ry rz
    limits (-20.0 45.0)
           (-30.0 30.0)
           (-30.0 30.0)
  end
  begin
     id 13 
     name thorax
     direction 0.0177047 0.991119 0.131797   
     length 2.17652   
     axis 0 0 0   XYZ
    dof rx ry rz
    limits (-20.0 45.0)
           (-30.0 30.0)
           (-30.0 30.0)
  end
  begin
     id 14 
     name lowerneck
     direction -0.0336893 0.997548 0.0613464   
     length 1.8912   
     axis 0 0 0   XYZ
    dof rx ry rz
    limits (-20.0 45.0)
           (-30.0 30.0)
           (-30.0 30.0)
  end
  begin
     id 15 
     name upperneck
     direction 0.0435909 0.997179 -0.0611028   
     length 1.8829   
     axis 0 0 0   XYZ
    dof rx ry rz
    limits (-20.0 45.0)
           (-30.0 30.0)
           (-30.0 30.0)
  end
  begin
     id 16
     name head
     direction 0.0175076 0.999444 -0.0283782  
     length 1.93197  
     axis 0 0 0   XYZ
    dof rx ry rz
    limits (-20.0 45.0)
           (-30.0 30.0)
           (-30.0 30.0)
  end
  begin
     id 17 
     name lclavicle
     direction 0.919164 0.389875 0.0559876  
     length 3.60004  
     axis 0 0 0   XYZ
    dof ry rz
    limits (-20.0 10.0)
           (0.0 20.0)
  end
  begin
     id 18 
     name lhumerus
     direction 1 -4.48958e-011 6.89191e-027   
     length 5.43301   
     axis 180 -30 -90   XYZ
    dof rx ry rz
    limits (-60.0 90.0)
           (-90.0 90.0)
           (-90.0 90.0)
  end
  begin
     id 19
     name lradius
     direction 1 -4.4897e-011 3.24727e-027   
     length 3.15936   
     axis 180 -30 -90   XYZ
    dof rx
    limits (-10.0 170.0)
  end
  begin
     id 20
     name lwrist
     direction 1 -4.4897e-011 9.00228e-027   
     length 1.57968   
     axis -6.29373e-015 90 90   XYZ
    dof ry
    limits (-180.0 0.0)
 end
  begin
     id 21 
     name lhand
     direction 1 -4.48968e-011 1.80042e-026   
     length 0.712827   
     axis -1.14882e-014 90 90   XYZ
    dof rx rz
    limits (-90.0 90.0)
           (-45.0 45.0)
  end
  begin
     id 22 
     name lfingers
     direction 1 -4.49019e-011 3.60267e-026   
     length 0.574699   
     axis -2.29769e-014 90 90   XYZ
    dof rx
    limits (0.0 90.0)
  end
  begin
     id 23
     name lthumb
     direction 0.707107 -6.3498e-011 0.707107   
     length 0.825157   
     axis -90 45 5.37419e-014   XYZ
    dof rx rz
    limits (-45.0 45.0)
           (-45.0 45.0)
  end
  begin
     id 24 
     name rclavicle
     direction -0.890334 0.455305 -0.00132111   
     length 3.51494  
     axis 0 0 0   XYZ 
    dof ry rz
    limits (-10.0 20.0)
           (-20.0 0.0)
  end
  begin
     id 25 
     name rhumerus
     direction -1 -4.48967e-011 5.07175e-028  
     length 5.34194   
     axis 180 30 90   XYZ
    dof rx ry rz
    limits (-90.0 60.0)
           (-90.0 90.0)
           (-90.0 90.0)
  end
  begin
     id 26 
     name rradius
     direction -1 -4.48955e-011 3.30467e-027   
     length 3.19351   
     axis 180 30 90   XYZ
    dof rx
    limits (-10.0 170.0)
  end
  begin
     id 27 
     name rwrist
     direction -1 -4.48968e-011 9.00208e-027   
     length 1.59676   
     axis -6.29373e-015 -90 -90   XYZ
    dof ry
    limits (-180.0 0.0)
  end
  begin
     id 28
     name rhand
     direction -1 -4.49e-011 1.80099e-026   
     length 0.743862   
     axis -1.14882e-014 -90 -90   XYZ
    dof rx rz
    limits (-90.0 90.0)
           (-45.0 45.0)
  end
  begin
     id 29
     name rfingers
     direction -1 -4.49009e-011 3.6023e-026   
     length 0.599721   
     axis -2.29769e-014 -90 -90   XYZ
    dof rx
    limits (0.0 90.0)
  end
  begin
     id 30
     name rthumb
     direction -0.707107 -6.35025e-011 0.707107   
     length 0.861083   
     axis -90 -45 -5.37419e-014   XYZ
    dof rx rz
    limits (-45.0 45.0)
           (-45.0 45.0)
  end
:hierarchy
  begin
    root lhipjoint rhipjoint lowerback
    lhipjoint lfemur
    lfemur ltibia
    ltibia lfoot
    lfoot ltoes
    rhipjoint rfemur
    rfemur rtibia
    rtibia rfoot
    rfoot rtoes
    lowerback upperback
    upperback thorax
    thorax lowerneck lclavicle rclavicle
    lowerneck upperneck
    upperneck head
    lclavicle lhumerus
    lhumerus lradius
    lradius lwrist
    lwrist lhand lthumb
    lhand lfingers
    rclavicle rhumerus
    rhumerus rradius
    rradius rwrist
    rwrist rhand rthumb
    rhand rfingers
  end

#!OML:ASF H:\Martial Arts Walks\Project 1\Capture day 1\Session 1\male.ASF
:FULLY-SPECIFIED
:DEGREES
462
root -0.287508 13.1263 -3.26397 16.1846 -31.1237 -20.3834
lowerback 8.99528 0.675848 7.43081
upperback -1.90636 2.12086 6.2118
thorax -7.07684 0.840131 2.09137
lowerneck -2.94477 7.21563 2.23129
upperneck 5.80661 9.40167 1.95369
head 2.34144 4.77783 0.51894
rclavicle -4.34841e-015 3.3197e-014
rhumerus -78.3975 21.8219 -96.4178
rradius 109.804
rwrist -49.3715
rhand 1.86285 -13.3921
rfingers 7.12502
rthumb 27.3734 -41.4241
lclavicle -4.34841e-015 3.3197e-014
lhumerus 7.24766 -5.65789 68.0507
lradius 26.4135
lwrist -41.0334
lhand -19.8691 21.6075
lfingers 7.12502
lthumb 6.4662 51.4888
rfemur 14.3274 -6.0395 9.61304
rtibia 29.3401
rfoot -22.6074 -25.9324
rtoes -31.7188
lfemur -74.0503 40.0986 -3.24512
ltibia 86.3365
lfoot -13.7048 -16.7152
ltoes 8.80031
463
root -0.286081 13.1226 -3.25945 16.1627 -31.1618 -20.3406
lowerback 8.98459 0.675165 7.40377
upperback -1.90292 2.11481 6.20399
thorax -7.06748 0.838465 2.09889
lowerneck -2.91239 7.21447 2.21399
upperneck 5.77872 9.40342 1.93844
head 2.32619 4.7776 0.514742
rclavicle 7.74142e-014 -2.5842e-014
rhumerus -78.4119 21.8183 -96.4402
rradius 109.806
rwrist -49.4153
rhand 1.91492 -13.3633
rfingers 7.12502
rthumb 27.4232 -41.3874
lclavicle 7.74142e-014 -2.5842e-014
lhumerus 7.24543 -5.62152 68.0466
lradius 26.395
lwrist -41.1406
lhand -19.8081 21.5575
lfingers 7.12502
lthumb 6.52508 51.437
rfemur 14.2983 -6.0257 9.54193
rtibia 29.4055
rfoot -22.6564 -25.9343
rtoes -31.5793
lfemur -74.0242 40.1305 -3.26706
ltibia 86.3855
lfoot -13.8024 -16.782
ltoes 8.87667
464
root -0.284764 13.119 -3.25483 16.1415 -31.1919 -20.2995
lowerback 8.97443 0.670939 7.38281
upperback -1.90006 2.10489 6.1974
thorax -7.05899 0.834631 2.10492
lowerneck -2.86881 7.21338 2.19071
upperneck 5.74343 9.40601 1.92295
head 2.30615 4.77756 0.510724
rclavicle 4.24654e-014 -3.06128e-014
rhumerus -78.4208 21.8179 -96.4589
rradius 109.806
rwrist -49.4537
rhand 1.97318 -13.3286
rfingers 7.12502
rthumb 27.4789 -41.3439
lclavicle 4.24654e-014 -3.06128e-014
lhumerus 7.23957 -5.59063 68.0373
lradius 26.3752
lwrist -41.2247
lhand -19.7556 21.5204
lfingers 7.12502
lthumb 6.57574 51.3983
rfemur 14.2803 -6.01488 9.47607
rtibia 29.4559
rfoot -22.7026 -25.9361
rtoes -31.4396
lfemur -74.0021 40.1585 -3.2881
ltibia 86.4332
lfoot -13.8939 -16.8544
ltoes 8.96747
465
root -0.283638 13.1154 -3.25022 16.1232 -31.2111 -20.266
lowerback 8.96596 0.662978 7.37316
upperback -1.8975 2.09159 6.19306
thorax -7.05163 0.828652 2.10758
lowerneck -2.82646 7.21426 2.16877
upperneck 5.71163 9.41103 1.90742
head 2.2876 4.77881 0.506717
rclavicle 3.00662e-015 2.78299e-015
rhumerus -78.4238 21.8222 -96.4733
rradius 109.801
rwrist -49.4796
rhand 2.03986 -13.2849
rfingers 7.12502
rthumb 27.5427 -41.29
lclavicle 3.00662e-015 2.78299e-015
lhumerus 7.23182 -5.57065 68.0222
lradius 26.3554
lwrist -41.2714
lhand -19.7269 21.5145
lfingers 7.12502
lthumb 6.60344 51.3916
rfemur 14.277 -6.00905 9.42114
rtibia 29.4873
rfoot -22.7433 -25.9372
rtoes -31.3076
lfemur -73.9857 40.1814 -3.30333
ltibia 86.4797
lfoot -13.9767 -16.9274
ltoes 9.07278
466
root -0.282706 13.1119 -3.24558 16.1087 -31.2132 -20.2408
lowerback 8.95928 0.650078 7.37906
upperback -1.89717 2.07398 6.19069
thorax -7.04741 0.819814 2.10442
lowerneck -2.78978 7.21647 2.15723
upperneck 5.69005 9.41727 1.88584
head 2.27434 4.78081 0.499803
rclavicle -2.78547e-014 -9.14409e-015
rhumerus -78.4216 21.8288 -96.4833
rradius 109.791
rwrist -49.4905
rhand 2.11288 -13.2377
rfingers 7.12502
rthumb 27.6125 -41.2317
lclavicle -2.78547e-014 -9.14409e-015
lhumerus 7.22106 -5.56036 68.0048
lradius 26.3356
lwrist -41.2837
lhand -19.731 21.5369
lfingers 7.12502
lthumb 6.5995 51.4141
rfemur 14.2905 -6.01457 9.37864
rtibia 29.4982
rfoot -22.7774 -25.9385
rtoes -31.1846
lfemur -73.9801 40.1928 -3.31399
ltibia 86.5264
lfoot -14.0508 -16.9948
ltoes 9.16928
467
root -0.281908 13.1084 -3.24097 16.1017 -31.2008 -20.2232
lowerback 8.95191 0.631863 7.39805
upperback -1.89978 2.05105 6.19064
thorax -7.04579 0.807746 2.09733
lowerneck -2.76683 7.22303 2.14577
upperneck 5.68623 9.42815 1.8719
head 2.26906 4.78552 0.496513
rclavicle -8.48189e-014 3.37934e-014
rhumerus -78.4147 21.8436 -96.4902
rradius 109.772
rwrist -49.4881
rhand 2.18685 -13.1886
rfingers 7.12502
rthumb 27.6833 -41.1713
lclavicle -8.48189e-014 3.37934e-014
lhumerus 7.20405 -5.55117 67.9858
lradius 26.3185
lwrist -41.2707
lhand -19.7605 21.582
lfingers 7.12502
lthumb 6.57101 51.4601
rfemur 14.3139 -6.03087 9.34661
rtibia 29.4903
rfoot -22.8024 -25.9382
rtoes -31.0761
lfemur -73.9904 40.1946 -3.32538
ltibia 86.573
lfoot -14.114 -17.0526
ltoes 9.26003
